<svg width="30" height="32" viewBox="0 0 30 32" fill="none" xmlns="http://www.w3.org/2000/svg">
<path d="M28.504 11.0224C27.3674 9.85091 25.6542 9.17015 23.2793 8.93268V7.72949C23.2793 5.56057 22.2955 3.47081 20.5652 2.01431C18.818 0.526147 16.5449 -0.170439 14.1871 0.0353704C10.1329 0.399495 6.72335 4.05657 6.72335 8.01445V8.93268C4.3485 9.17015 2.63522 9.85091 1.49869 11.0224C-0.146738 12.7322 -0.0958491 15.0119 0.0907458 16.5951L1.27817 25.4132C1.63439 28.5004 2.97448 31.6667 10.2686 31.6667H19.734C27.0282 31.6667 28.3683 28.5004 28.7245 25.4291L29.9119 16.5792C30.0985 15.0119 30.1324 12.7322 28.504 11.0224ZM14.4245 2.23595C16.1209 2.09347 17.7324 2.58424 18.9876 3.64495C20.2259 4.68983 20.9214 6.178 20.9214 7.72949V8.83769H9.08123V8.01445C9.08123 5.19644 11.5748 2.48925 14.4245 2.23595ZM8.92856 17.6558H8.9116C7.97862 17.6558 7.21528 16.9434 7.21528 16.0726C7.21528 15.2019 7.97862 14.4895 8.9116 14.4895C9.86153 14.4895 10.6249 15.2019 10.6249 16.0726C10.6249 16.9434 9.86153 17.6558 8.92856 17.6558ZM20.8027 17.6558H20.7857C19.8528 17.6558 19.0894 16.9434 19.0894 16.0726C19.0894 15.2019 19.8528 14.4895 20.7857 14.4895C21.7357 14.4895 22.499 15.2019 22.499 16.0726C22.499 16.9434 21.7357 17.6558 20.8027 17.6558Z" fill="#575757"/>
</svg>
